# xmcd
#
# Track frame offsets:
#	150
#	10979
#	19315
#	31127
#	40219
#	53112
#	64497
#	74224
#	86104
#	95614
#	107313
#	117320
#	129075
#	138909
#	148311
#	159641
#
# Disc length: 2264 seconds
#
# Revision: 0
# Processed by: cddbd v1.4PL0 Copyright (c) Steve Scherf et al.
# Submitted via: EasyCDDAExtractor 4.6.9.1
#
DISCID=e608d610
DTITLE=Larry Robichaud
DYEAR=1900
DGENRE=
TTITLE0=A Ton Mariage
TTITLE1=C'esr Une Larme
TTITLE2=Chante Avec Moi
TTITLE3=Cher Papa
TTITLE4=Hello Vietnam
TTITLE5=J'ai Retrouver Mon Coeur
TTITLE6=Je Ne Serai Pas La
TTITLE7=La Complainte D'un Infirme
TTITLE8=L'Amour Aux Quatre Saisons
TTITLE9=Ma Mere
TTITLE10=Notre AmourC'est surement Egarer
TTITLE11=Pardonne-moi Si Je Pleurs
TTITLE12=Pense A moi
TTITLE13=Quand Les Cloches Sonneront
TTITLE14=Ton Amour M'est Rester Cher
TTITLE15=Un Instant DE Boheur
EXTD=
EXTT0=
EXTT1=
EXTT2=
EXTT3=
EXTT4=
EXTT5=
EXTT6=
EXTT7=
EXTT8=
EXTT9=
EXTT10=
EXTT11=
EXTT12=
EXTT13=
EXTT14=
EXTT15=
PLAYORDER=
